# xmcd
# 
# Track frame offsets:
#   150
#   24684
#   43571
#   60852
#   91810
#   109437
#   131224
#   144872
# 
# Disc length: 2043 seconds
# 
# Revision: 1
# Processed by: cddbd v1.5.1PL0 Copyright (c) Steve Scherf et al.
# Submitted via: VOLTOCDX V1.0.24 
# 
DISCID=6607f908
DTITLE=My Artist - My Title
DYEAR=2005
DGENRE=Description of the extended genre
TTITLE0=Undivided
TTITLE1=The Distance
TTITLE2=Everyday
TTITLE3=Piano and I
TTITLE4=
TTITLE5=
TTITLE6=
TTITLE7=
EXTD=Extended CD description
EXTT0=
EXTT1=
EXTT2=
EXTT3=
EXTT4=
EXTT5=
EXTT6=
EXTT7=
PLAYORDER=
